<svg width="125" height="125" viewBox="0 0 125 125" fill="none" xmlns="http://www.w3.org/2000/svg">
<g clip-path="url(#clip0)">
<path d="M22.2014 47.6313C22.2014 45.3062 23.1497 43.1885 24.686 41.6589C26.2156 40.1226 28.3333 39.1746 30.6584 39.1746C32.9907 39.1746 35.1013 40.1226 36.6379 41.6589C38.1675 43.1885 39.1223 45.3059 39.1223 47.6313C39.1223 49.8875 39.24 51.9983 39.4407 53.9983H43.759C45.074 53.9983 46.2642 53.4653 47.1294 52.6003C47.9944 51.7354 48.5342 50.5381 48.5342 49.23V42.3511C48.5342 41.3406 49.3508 40.5171 50.3682 40.5171H57.2473C58.5552 40.5171 59.7524 39.9841 60.6177 39.1123C61.4827 38.2473 62.0225 37.0569 62.0225 35.749C62.0225 34.4341 61.4827 33.2439 60.6177 32.3787C59.7527 31.5134 58.5554 30.9739 57.2473 30.9739H50.3682C49.3508 30.9739 48.5342 30.1572 48.5342 29.147V22.2607C48.5342 20.9526 47.9944 19.7625 47.1294 18.8972C46.2642 18.0322 45.074 17.4924 43.759 17.4924H36.8801C35.8696 17.4924 35.053 16.6689 35.053 15.6584V8.7793C35.053 7.46436 34.5132 6.27417 33.6482 5.40894C32.783 4.54395 31.5859 4.00415 30.2778 4.00415C28.9697 4.00415 27.7795 4.54395 26.9075 5.40894C26.0422 6.27393 25.5093 7.46436 25.5093 8.7793V15.6584C25.5093 16.6689 24.6858 17.4924 23.6753 17.4924H16.7964C15.4883 17.4924 14.291 18.0322 13.426 18.8972C12.561 19.7625 12.0212 20.9526 12.0212 22.2607V49.23C12.0212 50.5381 12.561 51.7354 13.426 52.6003C14.291 53.4653 15.4883 53.9983 16.7964 53.9983H22.2014V47.6313ZM102.799 67.5347C102.799 68.5452 101.982 69.3616 100.972 69.3616C99.9617 69.3616 99.1379 68.5449 99.1379 67.5347V55.832V47.6313C99.1379 46.3164 98.5981 45.1123 97.7261 44.2473C96.8611 43.3752 95.6567 42.8354 94.342 42.8354C93.0269 42.8354 91.8228 43.3752 90.9578 44.2473C90.0859 45.1125 89.5461 46.3167 89.5461 47.6313C89.5461 53.3823 88.771 58.4204 87.7744 64.0537C87.0547 68.137 86.3833 71.9639 86.3833 75.9846C86.3833 80.9468 87.7815 89.9502 92.4734 93.106C92.9856 93.4451 93.283 94.0125 93.283 94.6213L93.2898 99.4658H111.892C112.903 95.4934 114.321 92.2686 115.768 88.9744C118.502 82.7598 121.339 76.303 121.339 63.9705C121.339 56.8079 120.349 50.1433 118.64 44.5308C117.574 41.022 116.232 37.9355 114.688 35.4094V49.2297C114.688 51.5481 113.74 53.6589 112.211 55.1885C110.681 56.7178 108.577 57.666 106.252 57.666H102.799V67.5347ZM102.799 47.6313V53.9983H106.252C107.567 53.9983 108.758 53.4653 109.623 52.6003C110.488 51.7354 111.028 50.5381 111.028 49.23V22.2607C111.028 20.9526 110.488 19.7625 109.623 18.8972C108.758 18.0322 107.567 17.4924 106.252 17.4924H99.3733C98.3628 17.4924 97.5391 16.6689 97.5391 15.6584V8.7793C97.5391 7.46436 97.0063 6.27417 96.1411 5.40894C95.2761 4.54395 94.0786 4.00415 92.7705 4.00415C91.4626 4.00415 90.2654 4.54395 89.4001 5.40894C88.5352 6.27393 87.9954 7.46436 87.9954 8.7793V15.6584C87.9954 16.6689 87.1787 17.4924 86.1685 17.4924H79.2896C77.9744 17.4924 76.7842 18.0322 75.9192 18.8972C75.054 19.7625 74.5142 20.9526 74.5142 22.2607V27.3127H79.5662C81.8914 27.3127 83.9954 28.2607 85.5247 29.7903C87.0542 31.3198 88.0022 33.4236 88.0022 35.7488C88.0022 38.0671 87.054 40.178 85.5247 41.7073C83.9951 43.2297 81.8914 44.178 79.5662 44.178H74.5142V49.23C74.5142 50.5381 75.054 51.7354 75.9192 52.6003C76.7842 53.4653 77.9744 53.9983 79.2896 53.9983H85.5664C85.7603 51.9983 85.885 49.8875 85.885 47.6313C85.885 45.3062 86.833 43.1885 88.3694 41.6589C89.8989 40.1226 92.0164 39.1746 94.342 39.1746C96.6743 39.1746 98.7849 40.1226 100.321 41.6589C101.851 43.1882 102.799 45.3059 102.799 47.6313ZM22.2014 57.666H16.7964C14.4709 57.666 12.3672 56.7178 10.8376 55.1885C9.30811 53.6589 8.36011 51.5481 8.36011 49.2297V38.939C7.36353 41.105 6.49854 43.5478 5.79248 46.2124C4.42212 51.4097 3.66089 57.4443 3.66089 63.9705C3.66089 76.303 6.49854 82.7598 9.23193 88.9744C10.6782 92.2686 12.0969 95.4934 13.1074 99.4658H31.71V94.6216C31.71 94.0334 32.0005 93.459 32.5266 93.1062C37.2256 89.9504 38.6238 80.9468 38.6238 75.9849C38.6238 71.9641 37.9456 68.137 37.2258 64.054C36.2361 58.4207 35.4609 53.3826 35.4609 47.6316C35.4609 46.3167 34.9211 45.1125 34.0491 44.2476C33.177 43.3755 31.9797 42.8357 30.658 42.8357C29.343 42.8357 28.1458 43.3755 27.2739 44.2476C26.4019 45.1128 25.8618 46.3169 25.8618 47.6316V55.8323V67.5349C25.8618 68.5454 25.0452 69.3618 24.0349 69.3618C23.0176 69.3618 22.2009 68.5452 22.2009 67.5349V57.666H22.2014ZM98.252 120.989C99.2625 120.989 100.086 121.812 100.086 122.823C100.086 123.833 99.2625 124.657 98.252 124.657H85.0542C84.0437 124.657 83.2202 123.833 83.2202 122.823V107.701C83.2202 105.438 84.1477 103.376 85.6426 101.881C86.7222 100.802 88.0923 100.02 89.6287 99.6736V95.5283C84.4175 91.2168 82.7219 82.2546 82.7219 75.9846C82.7219 71.6594 83.4209 67.6731 84.1685 63.4309C84.5005 61.5762 84.8328 59.6663 85.1233 57.6663H79.2896C76.9641 57.6663 74.8604 56.718 73.3311 55.1887C71.8013 53.6592 70.8535 51.5483 70.8535 49.23V42.3511C70.8535 41.3406 71.6702 40.5171 72.6875 40.5171H79.5667C80.8745 40.5171 82.072 39.9841 82.937 39.1123C83.802 38.2473 84.3418 37.0569 84.3418 35.749C84.3418 34.4341 83.802 33.2439 82.937 32.3787C82.072 31.5134 80.8748 30.9739 79.5667 30.9739H72.6875C71.6702 30.9739 70.8535 30.1572 70.8535 29.147V22.2607C70.8535 19.9424 71.8015 17.8315 73.3311 16.3091C74.8604 14.7798 76.9641 13.8315 79.2896 13.8315H84.3347V8.7793C84.3347 6.4541 85.2827 4.3501 86.812 2.8208C88.3416 1.29126 90.4521 0.343262 92.7705 0.343262C95.0891 0.343262 97.2 1.29126 98.7292 2.8208C100.259 4.35034 101.207 6.4541 101.207 8.7793V13.8313H106.252C108.577 13.8313 110.681 14.7793 112.21 16.3088C113.74 17.8313 114.688 19.9421 114.688 22.2605V29.3472C117.754 32.6482 120.328 37.5479 122.135 43.4719C123.948 49.4443 125 56.4756 125 63.9705C125 77.0574 122.003 83.8809 119.117 90.4485C117.81 93.4243 116.522 96.3379 115.595 99.7773C116.958 100.172 118.183 100.906 119.159 101.881C120.654 103.376 121.581 105.438 121.581 107.701V122.823C121.581 123.833 120.758 124.657 119.747 124.657H106.549C105.539 124.657 104.715 123.833 104.715 122.823C104.715 121.812 105.539 120.989 106.549 120.989H117.92V107.701C117.92 106.449 117.401 105.3 116.571 104.469C115.74 103.646 114.598 103.127 113.345 103.127H91.4624C90.2029 103.127 89.061 103.639 88.2307 104.469C87.4001 105.3 86.8879 106.449 86.8879 107.701V120.989H98.252ZM26.7483 124.657C25.7378 124.657 24.9211 123.833 24.9211 122.823C24.9211 121.812 25.7378 120.989 26.7483 120.989H38.1189V107.701C38.1189 106.449 37.5999 105.3 36.7693 104.469C35.9387 103.639 34.7969 103.127 33.5442 103.127H11.6614C10.4434 103.127 9.2876 103.611 8.42944 104.469C7.59888 105.3 7.08667 106.449 7.08667 107.701V120.989H18.4573C19.4678 120.989 20.2844 121.812 20.2844 122.823C20.2844 123.833 19.4678 124.657 18.4573 124.657H5.25293C4.24243 124.657 3.42578 123.833 3.42578 122.823V107.701C3.42578 105.438 4.35303 103.376 5.84131 101.881C6.82397 100.906 8.04199 100.172 9.40527 99.7773C8.47803 96.3379 7.19775 93.4243 5.88965 90.4485C2.99658 83.8811 0 77.0574 0 63.9705C0 57.1399 0.802979 50.7939 2.26294 45.2783C3.69556 39.8525 5.77856 35.2158 8.36011 31.728V22.2607C8.36011 19.9424 9.30811 17.8315 10.8376 16.3091C12.3672 14.7798 14.4709 13.8315 16.7964 13.8315H21.8484V8.7793C21.8484 6.4541 22.7964 4.3501 24.3191 2.8208C25.8484 1.29126 27.9595 0.343262 30.2778 0.343262C32.603 0.343262 34.707 1.29126 36.2363 2.8208C37.7659 4.35034 38.7139 6.4541 38.7139 8.7793V13.8313H43.759C46.0842 13.8313 48.1953 14.7793 49.7178 16.3088C51.2473 17.8313 52.1953 19.9421 52.1953 22.2605V27.3125H57.2476C59.5659 27.3125 61.6768 28.2605 63.2061 29.79C64.7356 31.3196 65.6833 33.4233 65.6833 35.7485C65.6833 38.0669 64.7354 40.1777 63.2061 41.707C61.6765 43.2295 59.5657 44.1777 57.2476 44.1777H52.1953V49.2297C52.1953 51.5481 51.2473 53.6589 49.7178 55.1885C48.1953 56.7178 46.0845 57.666 43.759 57.666H39.8835C40.1672 59.666 40.5063 61.5762 40.8315 63.4307C41.5791 67.6729 42.2849 71.6592 42.2849 75.9844C42.2849 82.2544 40.5823 91.2165 35.3711 95.5281V99.6733C36.9075 100.019 38.2847 100.801 39.3643 101.881C40.8521 103.376 41.7795 105.438 41.7795 107.701V122.823C41.7795 123.833 40.9629 124.656 39.9526 124.656H26.7483V124.657Z" fill="black"/>
</g>
<defs>
<clipPath id="clip0">
<rect width="125" height="125" fill="white"/>
</clipPath>
</defs>
</svg>
