<svg width="125" height="125" viewBox="0 0 125 125" fill="none" xmlns="http://www.w3.org/2000/svg">
<path d="M106.694 18.3057C94.8894 6.50122 79.1943 0 62.5 0C45.8057 0 30.1106 6.50122 18.3059 18.3057C6.50098 30.1106 0 45.8057 0 62.5C0 78.8938 6.30078 94.3862 17.7422 106.123C18.4478 106.847 19.6072 106.862 20.3313 106.156C21.0554 105.45 21.0701 104.291 20.3643 103.567C9.59375 92.5178 3.66187 77.9333 3.66187 62.5C3.66187 46.7837 9.78223 32.0083 20.8953 20.895C32.0083 9.78198 46.7839 3.66187 62.5 3.66187C78.2161 3.66187 92.9917 9.78198 104.105 20.895C115.218 32.0081 121.338 46.7837 121.338 62.5C121.338 78.2163 115.218 92.9917 104.105 104.105C92.9917 115.218 78.2161 121.338 62.5 121.338C49.3357 121.338 36.8901 117.089 26.5085 109.05C25.709 108.431 24.5588 108.577 23.9399 109.376C23.3208 110.176 23.467 111.326 24.2666 111.945C35.2957 120.486 48.5166 125 62.5 125C79.1943 125 94.8894 118.499 106.694 106.694C118.499 94.8894 125 79.1943 125 62.5C125 45.8057 118.499 30.1106 106.694 18.3057Z" fill="black"/>
<path d="M19.6018 62.5C19.6018 86.154 38.8459 105.398 62.5 105.398C86.154 105.398 105.398 86.154 105.398 62.5C105.398 55.7747 103.838 49.4087 101.067 43.7375L102.272 42.365C105.839 38.3091 105.442 32.1067 101.386 28.5388C97.686 25.2842 92.1999 25.3313 88.5561 28.4456C81.3279 22.9016 72.2925 19.6018 62.5 19.6018C38.8459 19.6018 19.6018 38.8459 19.6018 62.5ZM62.5 23.2639C71.3315 23.2639 79.4885 26.1997 86.0527 31.1428L76.2739 42.2859C75.6069 43.0459 75.6821 44.2026 76.4421 44.8696C77.2026 45.5366 78.3591 45.4612 79.0259 44.7012L90.3098 31.8433C92.5437 29.3032 96.4277 29.0549 98.9675 31.2886C101.507 33.5227 101.756 37.4065 99.5207 39.9478L64.0107 80.3962C62.8467 81.72 61.1677 82.479 59.405 82.479H59.3655C57.5876 82.4678 55.9043 81.687 54.7471 80.3369L38.7925 61.7231C37.7261 60.4792 37.2082 58.8943 37.334 57.2605C37.4597 55.6267 38.2139 54.1396 39.4585 53.0732C40.7021 52.0071 42.2861 51.4883 43.9207 51.6147C45.5544 51.7405 47.0415 52.4949 48.1079 53.739L58.0923 65.3877C58.4377 65.7908 58.9412 66.0239 59.4717 66.0271C60.0129 66.0261 60.5085 65.803 60.8584 65.4038L73.4055 51.1062C74.0725 50.3462 73.9973 49.1894 73.2373 48.5225C72.477 47.8555 71.3205 47.9309 70.6536 48.6909L59.4988 61.4016L50.8882 51.3557C49.1853 49.3691 46.8105 48.1643 44.2017 47.9636C41.593 47.7632 39.0613 48.5901 37.0749 50.2932C35.0881 51.9961 33.8835 54.3708 33.6826 56.9797C33.4819 59.5889 34.3091 62.1196 36.0122 64.1064L51.9668 82.7202C53.8147 84.876 56.5029 86.1228 59.3411 86.1411H59.405C62.2202 86.1411 64.9011 84.9287 66.7615 82.8137L98.4304 46.7407C100.555 51.5664 101.736 56.8979 101.736 62.5002C101.736 84.135 84.135 101.736 62.5 101.736C40.865 101.736 23.2639 84.1348 23.2639 62.5C23.2639 40.8652 40.865 23.2639 62.5 23.2639Z" fill="black"/>
<path d="M62.5 14.1636C63.5113 14.1636 64.3311 13.3438 64.3311 12.3325C64.3311 11.3213 63.5113 10.5015 62.5 10.5015C61.4887 10.5015 60.6689 11.3213 60.6689 12.3325C60.6689 13.3438 61.4887 14.1636 62.5 14.1636Z" fill="black"/>
<path d="M62.5 114.499C63.5113 114.499 64.3311 113.679 64.3311 112.667C64.3311 111.656 63.5113 110.836 62.5 110.836C61.4887 110.836 60.6689 111.656 60.6689 112.667C60.6689 113.679 61.4887 114.499 62.5 114.499Z" fill="black"/>
<path d="M38.3318 20.6392C39.2075 20.1336 39.5076 19.0139 39.002 18.1379C38.4964 17.2622 37.3767 16.9622 36.501 17.4678C35.6253 17.9734 35.3252 19.093 35.8308 19.969C36.3362 20.8447 37.4561 21.1448 38.3318 20.6392Z" fill="black"/>
<path d="M86.6682 104.361C85.7925 104.866 85.4924 105.986 85.9981 106.862C86.5037 107.738 87.6233 108.038 88.499 107.532C89.3748 107.027 89.6748 105.907 89.1692 105.031C88.6638 104.155 87.544 103.855 86.6682 104.361Z" fill="black"/>
<path d="M19.969 35.8306C19.0933 35.325 17.9734 35.625 17.4678 36.5007C16.9622 37.3765 17.2622 38.4963 18.138 39.0017C19.0137 39.5073 20.1336 39.2073 20.6392 38.3316C21.1448 37.4558 20.8447 36.3362 19.969 35.8306Z" fill="black"/>
<path d="M105.031 89.1695C105.907 89.6751 107.027 89.375 107.532 88.4993C108.038 87.6236 107.738 86.5037 106.862 85.9983C105.986 85.4927 104.866 85.7927 104.361 86.6685C103.855 87.5442 104.155 88.6638 105.031 89.1695Z" fill="black"/>
<path d="M10.5015 62.5C10.5015 63.5112 11.3213 64.3311 12.3325 64.3311C13.3438 64.3311 14.1636 63.5112 14.1636 62.5C14.1636 61.4888 13.3438 60.6689 12.3325 60.6689C11.3213 60.6689 10.5015 61.4888 10.5015 62.5Z" fill="black"/>
<path d="M112.667 64.3311C113.679 64.3311 114.499 63.5113 114.499 62.5C114.499 61.4887 113.679 60.6689 112.667 60.6689C111.656 60.6689 110.836 61.4887 110.836 62.5C110.836 63.5113 111.656 64.3311 112.667 64.3311Z" fill="black"/>
<path d="M17.468 88.4993C17.9736 89.375 19.0935 89.6751 19.9692 89.1695C20.845 88.6638 21.145 87.544 20.6394 86.6682C20.1338 85.7925 19.0139 85.4924 18.1382 85.9981C17.2625 86.5037 16.9624 87.6236 17.468 88.4993Z" fill="black"/>
<path d="M35.8306 105.031C35.325 105.907 35.625 107.027 36.5007 107.532C37.3765 108.038 38.4963 107.738 39.0017 106.862C39.5073 105.986 39.2073 104.866 38.3316 104.361C37.4558 103.855 36.3362 104.155 35.8306 105.031Z" fill="black"/>
<path d="M89.1695 19.969C89.6751 19.0933 89.375 17.9734 88.4993 17.4678C87.6236 16.9622 86.5037 17.2622 85.9983 18.1379C85.4927 19.0137 85.7927 20.1336 86.6685 20.6392C87.5442 21.1448 88.6638 20.8447 89.1695 19.969Z" fill="black"/>
</svg>
