<svg width="125" height="125" viewBox="0 0 125 125" fill="none" xmlns="http://www.w3.org/2000/svg">
<path d="M95.5973 16.8743C95.0031 16.0551 93.8587 15.873 93.0405 16.4671C92.2213 17.0603 92.0391 18.2056 92.6332 19.0239C97.249 25.3887 99.6895 32.9227 99.6895 40.8115C99.6895 48.3818 97.4503 55.8138 93.215 62.3055C86.9522 71.9042 82.7751 78.9614 81.8081 89.1972C81.6927 90.414 80.8535 91.3858 79.7405 91.6996C79.6671 91.712 79.5937 91.7301 79.5231 91.7521C79.3428 91.7873 79.1559 91.8064 78.9652 91.8064H46.1149C45.9242 91.8064 45.7373 91.7873 45.5561 91.7521C45.4855 91.7301 45.413 91.713 45.3386 91.6996C44.2266 91.3858 43.3865 90.414 43.272 89.1972C42.305 78.9614 38.1279 71.9042 31.8651 62.3055C27.6289 55.8138 25.3906 48.3818 25.3906 40.8115C25.3906 20.3276 42.0561 3.66211 62.5401 3.66211C71.9938 3.66211 81.0003 7.2155 87.903 13.6671C88.6421 14.3576 89.7999 14.3185 90.4913 13.5794C91.1818 12.8412 91.1427 11.6825 90.4036 10.9911C82.8209 3.90339 72.9256 0 62.5401 0C40.0362 0 21.7285 18.3077 21.7285 40.8115C21.7285 49.0942 24.1728 57.2186 28.7981 64.3063C34.7624 73.4482 38.7383 80.143 39.6261 89.5414C39.8464 91.8694 41.2388 93.8034 43.19 94.7809V111.966C43.19 114.242 44.6243 116.189 46.6366 116.95C46.8159 121.42 50.5075 125 55.0203 125H70.0598C74.5726 125 78.2642 121.42 78.4435 116.95C80.4558 116.189 81.8901 114.243 81.8901 111.966V94.7809C83.8413 93.8034 85.2346 91.8703 85.454 89.5414C86.3419 80.143 90.3177 73.4482 96.282 64.3072C100.907 57.2186 103.352 49.0942 103.352 40.8115C103.352 32.1455 100.671 23.8676 95.5973 16.8743ZM58.3248 102.582H78.228V105.923H46.8521V102.582H51.0015C52.0134 102.582 52.8326 101.762 52.8326 100.751C52.8326 99.7391 52.0134 98.9199 51.0015 98.9199H46.8521V95.4685H78.228V98.9199H58.3258C57.3139 98.9199 56.4947 99.7391 56.4947 100.751C56.4947 101.762 57.3139 102.582 58.3248 102.582ZM76.6525 113.628C76.6411 113.627 76.6306 113.627 76.6191 113.627C76.6115 113.627 76.6039 113.627 76.5963 113.627C76.5705 113.627 76.5448 113.628 76.519 113.63H48.5611C48.5353 113.629 48.5096 113.628 48.4838 113.627C48.4648 113.627 48.4447 113.627 48.4257 113.627C47.5502 113.581 46.8512 112.853 46.8512 111.966V109.585H78.228V111.966C78.228 112.854 77.529 113.582 76.6525 113.628ZM70.0598 121.338H55.0203C52.6447 121.338 50.6725 119.577 50.3407 117.292H74.7395C74.4076 119.577 72.4354 121.338 70.0598 121.338Z" fill="black"/>
<path d="M82.6426 51.3458C82.7065 51.1207 82.922 50.9634 83.1661 50.9634H84.6491C86.9722 50.9634 88.8624 49.0741 88.8624 46.751V44.0368C88.8624 41.7146 86.9722 39.8244 84.6491 39.8244H83.0631C82.8238 39.8244 82.6092 39.6709 82.5424 39.4516C82.1266 38.0792 81.5668 36.7422 80.8773 35.4795C80.7638 35.2716 80.8039 35.0074 80.9746 34.8358L82.1123 33.699C82.9077 32.9027 83.3464 31.845 83.3464 30.7197C83.3464 29.5944 82.9077 28.5368 82.1123 27.7414L80.1926 25.8216C79.3972 25.0263 78.3396 24.5885 77.2142 24.5885C76.0889 24.5885 75.0313 25.0263 74.235 25.8216L73.0982 26.9594C72.9275 27.1301 72.6624 27.1711 72.4545 27.0566C71.1927 26.3681 69.8566 25.8073 68.4824 25.3915C68.2631 25.3248 68.1095 25.1102 68.1095 24.8708V23.2849C68.1095 20.9617 66.2203 19.0715 63.8971 19.0715H61.183C58.8598 19.0715 56.9706 20.9617 56.9706 23.2849V24.7678C56.9706 25.012 56.8123 25.2275 56.5882 25.2914C55.172 25.6938 53.793 26.2489 52.4912 26.9403C52.2881 27.0481 52.0277 27.0051 51.8589 26.8363L50.8451 25.8216C50.0488 25.0263 48.9912 24.5876 47.8659 24.5876C46.7405 24.5876 45.6829 25.0263 44.8875 25.8216L42.9678 27.7414C42.1724 28.5368 41.7337 29.5944 41.7337 30.7197C41.7337 31.845 42.1724 32.9027 42.9678 33.699L43.8786 34.6088C44.0521 34.7824 44.0922 35.0475 43.9758 35.2544C43.2291 36.5829 42.6264 37.9943 42.1858 39.4477C42.119 39.6699 41.8987 39.8244 41.6517 39.8244H40.431C38.1079 39.8244 36.2177 41.7146 36.2177 44.0368V46.751C36.2177 49.0741 38.1079 50.9634 40.431 50.9634H41.5564C41.8034 50.9634 42.0198 51.1188 42.0828 51.342C42.51 52.844 43.1061 54.3003 43.8566 55.6716C43.9663 55.8729 43.9234 56.1342 43.7517 56.3058L42.9678 57.0898C42.1724 57.8851 41.7337 58.9427 41.7337 60.0681C41.7337 61.1934 42.1724 62.251 42.9678 63.0474L44.8866 64.9662C45.6829 65.7615 46.7405 66.2002 47.8659 66.2002C48.9912 66.2002 50.0488 65.7615 50.8442 64.9662L51.6291 64.1822C51.7998 64.0106 52.0611 63.9677 52.2623 64.0783C53.6337 64.8279 55.0909 65.4249 56.5929 65.8512C56.8151 65.9141 56.9706 66.1306 56.9706 66.3776V67.5039C56.9706 69.827 58.8598 71.7163 61.183 71.7163H63.8971C66.2203 71.7163 68.1095 69.8261 68.1095 67.5039V66.2822C68.1095 66.0352 68.264 65.8159 68.4862 65.7482C69.9406 65.3076 71.3511 64.7048 72.6795 63.9581C72.8865 63.8427 73.1516 63.8828 73.3252 64.0554L74.235 64.9662C75.0313 65.7615 76.0889 66.2002 77.2142 66.2002C78.3396 66.2002 79.3972 65.7615 80.1926 64.9662L82.1123 63.0474C82.9077 62.251 83.3464 61.1934 83.3464 60.0681C83.3464 58.9427 82.9077 57.8851 82.1123 57.0898L81.0986 56.0751C80.9288 55.9062 80.8859 55.6459 80.9937 55.4428C81.686 54.141 82.2401 52.762 82.6426 51.3458ZM79.1197 50.3444C78.7878 51.5127 78.33 52.6504 77.7597 53.7262C76.89 55.3627 77.1914 57.3473 78.5084 58.6643L79.5221 59.679C79.7377 59.8936 79.7377 60.2426 79.5231 60.4572L77.6033 62.376C77.3888 62.5906 77.0397 62.5906 76.8251 62.376L75.9144 61.4662C74.585 60.1358 72.5164 59.8478 70.8847 60.7652C69.788 61.3822 68.6235 61.8791 67.4229 62.2434C65.671 62.7746 64.4474 64.435 64.4474 66.2822V67.5029C64.4474 67.8062 64.2004 68.0532 63.8971 68.0532H61.183C60.8797 68.0532 60.6327 67.8062 60.6327 67.5029V66.3766C60.6327 64.5008 59.3824 62.8356 57.5933 62.3273C56.3536 61.9754 55.151 61.4833 54.019 60.8644C53.3972 60.5239 52.7115 60.359 52.0296 60.359C50.9357 60.359 49.8476 60.7833 49.0398 61.5921L48.255 62.376C48.1215 62.5095 47.9698 62.5371 47.8659 62.5371C47.7619 62.5371 47.6103 62.5095 47.4768 62.376L45.557 60.4562C45.3424 60.2417 45.3424 59.8926 45.557 59.678L46.3409 58.8941C47.6551 57.5809 47.9546 55.5324 47.0695 53.914C46.4506 52.782 45.9576 51.5794 45.6057 50.3397C45.0974 48.5506 43.4322 47.3003 41.5564 47.3003H40.4301C40.1268 47.3003 39.8798 47.0533 39.8798 46.75V44.0359C39.8798 43.7326 40.1268 43.4856 40.4301 43.4856H41.6517C43.498 43.4856 45.1593 42.262 45.6905 40.5101C46.0539 39.3104 46.5508 38.145 47.1678 37.0483C48.0852 35.4166 47.7972 33.348 46.4678 32.0186L45.557 31.1079C45.3424 30.8933 45.3424 30.5442 45.557 30.3297L47.4768 28.4099C47.6913 28.1963 48.0404 28.1953 48.255 28.4099L49.2687 29.4246C50.5867 30.7416 52.5703 31.043 54.2078 30.1733C55.2826 29.603 56.4203 29.1452 57.5886 28.8133C59.3805 28.3041 60.6318 26.6399 60.6318 24.7659V23.283C60.6318 22.9797 60.8788 22.7327 61.183 22.7327H63.8971C64.2004 22.7327 64.4474 22.9797 64.4474 23.283V24.8689C64.4474 26.7381 65.6424 28.3565 67.421 28.8953C68.5549 29.2387 69.6573 29.7012 70.6987 30.2696C72.3238 31.1574 74.3752 30.8599 75.6874 29.5476L76.8251 28.4099C77.0397 28.1953 77.3888 28.1953 77.6033 28.4099L79.5221 30.3297C79.7367 30.5442 79.7367 30.8933 79.5221 31.1079L78.3854 32.2446C77.0731 33.5578 76.7756 35.6092 77.6625 37.2333C78.2318 38.2757 78.6943 39.3791 79.0377 40.512C79.5765 42.2906 81.1939 43.4846 83.0631 43.4846H84.6491C84.9524 43.4846 85.1994 43.7326 85.1994 44.0359V46.75C85.1994 47.0533 84.9524 47.3003 84.6491 47.3003H83.1661C81.2931 47.3012 79.6289 48.5525 79.1197 50.3444Z" fill="black"/>
<path d="M62.5401 32.0386C55.1758 32.0386 49.1848 38.0296 49.1848 45.3938C49.1848 52.7581 55.1758 58.75 62.5401 58.75C69.9043 58.75 75.8953 52.7581 75.8953 45.3938C75.8953 38.0296 69.9043 32.0386 62.5401 32.0386ZM62.5401 55.0879C57.1947 55.0879 52.8469 50.7392 52.8469 45.3938C52.8469 40.0485 57.1957 35.7007 62.5401 35.7007C67.8844 35.7007 72.2332 40.0485 72.2332 45.3938C72.2332 50.7392 67.8854 55.0879 62.5401 55.0879Z" fill="black"/>
</svg>
