<svg width="125" height="125" viewBox="0 0 125 125" fill="none" xmlns="http://www.w3.org/2000/svg">
<g clip-path="url(#clip0)">
<path d="M68.4433 66.2717H60.1969C59.5255 66.2717 58.9066 66.6398 58.5871 67.2311L52.0134 79.3743C51.7054 79.9417 51.7197 80.6303 52.0506 81.1843C52.3815 81.7384 52.9785 82.077 53.6232 82.077H53.6261L58.3534 82.0703L54.9288 90.3892C54.1639 92.2479 56.529 93.7719 57.9185 92.3786L72.6738 77.5756C73.1964 77.0521 73.3519 76.2643 73.0677 75.5815C72.7844 74.8977 72.1169 74.4524 71.3768 74.4524H66.453L69.973 69.1099C70.7712 67.8977 69.9043 66.2717 68.4433 66.2717ZM66.9661 78.1145L61.8143 83.2834L62.7823 80.9316C63.2782 79.7281 62.3922 78.4034 61.0895 78.4034C61.0523 78.4034 56.7284 78.4101 56.6988 78.4101L61.2879 69.9338H65.0444L61.5244 75.2763C60.7262 76.4884 61.5931 78.1145 63.0531 78.1145H66.9661Z" fill="black"/>
<path d="M64.3311 37.489V31.2729C64.3311 30.2611 63.5109 29.4419 62.5 29.4419C61.4891 29.4419 60.6689 30.2611 60.6689 31.2729V37.489C60.6689 38.4999 61.4891 39.3201 62.5 39.3201C63.5109 39.3201 64.3311 38.4999 64.3311 37.489Z" fill="black"/>
<path d="M97.9633 44.1312C97.2481 43.4159 96.0893 43.4159 95.3741 44.1312L90.9786 48.5257C90.2643 49.241 90.2643 50.4006 90.9786 51.1159C91.6939 51.8311 92.8535 51.8302 93.5688 51.1159L97.9633 46.7204C98.6786 46.0051 98.6786 44.8455 97.9633 44.1312Z" fill="black"/>
<path d="M32.7263 51.6518C33.1946 51.6518 33.6638 51.4735 34.0214 51.1159C34.7357 50.4006 34.7357 49.241 34.0214 48.5257L29.6259 44.1312C28.9107 43.4159 27.751 43.4159 27.0367 44.1312C26.3214 44.8464 26.3214 46.0051 27.0367 46.7204L31.4312 51.1159C31.7888 51.4735 32.2581 51.6518 32.7263 51.6518Z" fill="black"/>
<path d="M90.5981 65.9846C90.9137 66.6369 91.567 67.0165 92.246 67.0165C93.584 67.0165 94.4853 65.6079 93.8921 64.3853C91.1617 58.7596 86.9713 53.9798 81.7575 50.5198L85.4854 41.0146C86.2484 39.071 83.6544 37.5689 82.3498 39.2045L75.84 47.3641C58.9685 40.3785 39.2523 47.6035 31.1079 64.3853C30.6663 65.2951 31.0459 66.3909 31.9557 66.8324C32.8655 67.274 33.9603 66.8944 34.4019 65.9837C41.4963 51.3686 58.4783 44.752 73.4501 50.3587L66.5712 58.9808C65.2532 58.7214 63.8923 58.5812 62.5 58.5812C55.191 58.5812 48.5182 62.2929 44.6501 68.5099C44.1151 69.3692 44.3783 70.4984 45.2366 71.0324C46.0958 71.5665 47.225 71.3033 47.759 70.4449C50.9538 65.3094 56.4642 62.2433 62.499 62.2433C72.0997 62.2433 79.8502 70.0721 79.8502 79.5945C79.8502 89.1618 72.0663 96.9447 62.499 96.9447C52.9327 96.9447 45.1488 89.1608 45.1488 79.5945C45.1488 78.3948 45.2738 77.1912 45.5198 76.0163C45.7277 75.0264 45.0935 74.0565 44.1036 73.8486C43.1137 73.6417 42.1429 74.2759 41.9359 75.2658C41.6384 76.6867 41.4877 78.143 41.4877 79.5945C41.4877 91.1807 50.9138 100.607 62.5 100.607C74.0862 100.607 83.5123 91.1807 83.5123 79.5945C83.5123 73.3784 80.7972 67.7871 76.4942 63.9371L80.3861 54.0141C84.7521 57.0716 88.2683 61.1848 90.5981 65.9846ZM76.9043 51.9017C77.0082 51.9561 77.1141 52.0095 77.2171 52.0648L73.4529 61.6626C72.464 61.0551 71.433 60.5344 70.3621 60.1023L76.9043 51.9017Z" fill="black"/>
<path d="M118.637 52.0964C118.192 51.1885 117.094 50.8138 116.186 51.2591C115.278 51.7045 114.903 52.8012 115.349 53.7091C119.055 61.2613 121.058 69.3446 121.31 77.7636H88.9368C87.9259 77.7636 87.1058 78.5828 87.1058 79.5947C87.1058 93.1626 76.0679 104.2 62.5 104.2C48.9321 104.2 37.8942 93.1626 37.8942 79.5947C37.8942 78.5828 37.0741 77.7636 36.0632 77.7636H3.68977C4.14658 62.7337 10.2148 48.6699 20.896 37.9897C47.2631 11.6216 91.4955 16.0094 111.97 47.7324C112.518 48.5822 113.651 48.8263 114.502 48.2779C115.352 47.7296 115.596 46.5957 115.047 45.7459C93.3294 12.0984 46.36 7.34624 18.3058 35.4005C6.5012 47.2051 0 62.9006 0 79.5947C0 80.6065 0.82016 81.4257 1.83105 81.4257H34.2903C35.2383 96.1619 47.5283 107.863 62.5 107.863C77.4717 107.863 89.7617 96.1619 90.7097 81.4257H123.169C124.18 81.4257 125 80.6065 125 79.5947C125 69.9521 122.859 60.7005 118.637 52.0964Z" fill="black"/>
</g>
<defs>
<clipPath id="clip0">
<rect width="125" height="125" fill="white"/>
</clipPath>
</defs>
</svg>
