<svg width="180" height="180" viewBox="0 0 180 180" fill="none" xmlns="http://www.w3.org/2000/svg">
<g clip-path="url(#clip0)">
<path d="M179.164 163.414L141.33 101.922C140.295 100.241 138.499 99.2373 136.525 99.2373C134.551 99.2373 132.755 100.241 131.721 101.922L126.809 109.906C126.045 111.148 126.432 112.775 127.674 113.539C128.917 114.303 130.543 113.916 131.308 112.674L136.22 104.69C136.246 104.647 136.325 104.519 136.525 104.519C136.726 104.519 136.806 104.647 136.832 104.69L174.666 166.182C174.696 166.231 174.776 166.361 174.674 166.545C174.571 166.729 174.418 166.729 174.36 166.729H153.407L94.8041 71.4842C94.2778 70.6285 93.5536 69.9497 92.7095 69.4881C92.7105 69.4884 92.7116 69.4891 92.7123 69.4895V51.5668C94.9099 52.1627 97.0506 52.4173 99.1448 52.4173C105.168 52.4173 110.808 50.3237 116.326 48.2755C123.971 45.4373 131.193 42.7567 139.004 45.8891C140.012 46.293 141.15 46.1714 142.049 45.5632C142.949 44.9543 143.486 43.9421 143.486 42.8558V13.0233C143.486 11.7084 142.706 10.5268 141.5 10.0135C131.585 5.7853 122.893 9.01124 114.487 12.131C106.613 15.0539 99.1758 17.8147 91.0775 14.1954C90.2601 13.8301 89.3141 13.9039 88.5632 14.3905C87.8122 14.8774 87.3591 15.7113 87.3591 16.6064V16.7045C87.3137 16.901 87.2877 17.1046 87.2877 17.3148V69.4895C86.445 69.9511 85.7215 70.6296 85.1955 71.4842L57.3732 116.703L48.279 101.923C47.2447 100.241 45.4486 99.2376 43.4746 99.2376C41.5009 99.2376 39.7048 100.241 38.6705 101.923L0.835661 163.414C-0.234144 165.153 -0.279847 167.34 0.715778 169.122C1.7114 170.904 3.59824 172.011 5.63976 172.011H174.36C176.401 172.011 178.288 170.904 179.284 169.122C180.28 167.34 180.234 165.152 179.164 163.414ZM92.6409 20.3558C101.19 22.7007 108.868 19.8506 116.326 17.0824C123.703 14.3437 130.693 11.7499 138.205 14.3958V40.0546C129.63 37.7033 121.944 40.5566 114.488 43.3241C107.122 46.0578 100.139 48.6499 92.6409 46.0121V20.3558ZM32.7944 166.729L41.8546 152.004C42.6189 150.762 42.2314 149.135 40.9894 148.371C39.747 147.607 38.1206 147.994 37.3563 149.236L26.5932 166.729H5.64011C5.58246 166.729 5.42918 166.729 5.32652 166.545C5.22386 166.361 5.30367 166.231 5.33425 166.182L43.1691 104.69C43.1951 104.648 43.2742 104.52 43.4749 104.52C43.6757 104.52 43.7548 104.648 43.7808 104.69L54.2728 121.743L43.7966 138.769C43.0323 140.011 43.4197 141.638 44.6618 142.402C45.9046 143.166 47.5309 142.779 48.2948 141.537L89.6941 74.2517C89.7202 74.2096 89.7992 74.0809 90 74.0809C90.2004 74.0809 90.2795 74.2096 90.3058 74.2517L147.206 166.729H32.7944Z" fill="#585858"/>
</g>
<defs>
<clipPath id="clip0">
<rect width="180" height="180" fill="white"/>
</clipPath>
</defs>
</svg>
