<svg width="180" height="180" viewBox="0 0 180 180" fill="none" xmlns="http://www.w3.org/2000/svg">
<g clip-path="url(#clip0)">
<path d="M46.2867 56.6437C44.8576 56.6437 43.5463 55.7486 43.02 54.4215C42.4807 53.0606 42.8649 51.4515 43.9685 50.4857C45.0872 49.5066 46.7564 49.3407 48.0435 50.086C49.3316 50.8317 50.0294 52.3532 49.7352 53.8172C49.4093 55.4407 47.9422 56.6437 46.2867 56.6437Z" fill="#585858"/>
<path d="M110.538 128.834C109.069 128.834 107.728 127.889 107.229 126.508C106.745 125.167 107.141 123.613 108.219 122.676C109.363 121.681 111.04 121.534 112.343 122.305C113.559 123.026 114.235 124.473 114.01 125.869C113.738 127.552 112.246 128.834 110.538 128.834Z" fill="#585858"/>
<path d="M179.444 26.1348C178.966 24.8463 177.781 23.9544 176.411 23.8521L157.244 22.4184L155.811 3.25371C155.709 1.88332 154.817 0.698204 153.528 0.22008C152.239 -0.258396 150.791 0.0583615 149.819 1.03008L134.499 16.3494C131.962 18.8866 130.492 22.2588 130.361 25.8451C130.359 25.9087 130.358 25.9723 130.359 26.036L130.568 37.7739C116.828 26.6621 99.3479 19.9993 80.3407 19.9993C36.226 19.9993 0.336121 55.8874 0.336121 100C0.336121 144.113 36.226 180.001 80.3407 180.001C124.455 180.001 160.345 144.113 160.345 100C160.345 80.6887 153.467 62.9538 142.032 49.116L153.633 49.3034C153.652 49.3037 153.671 49.3037 153.69 49.3037C153.733 49.3037 153.776 49.303 153.819 49.3013C157.404 49.1701 160.777 47.7006 163.314 45.163L178.634 29.8437C179.606 28.872 179.922 27.4229 179.444 26.1348ZM139.471 21.3212L149.371 11.4215L150.339 24.3541L137.589 37.1242L137.391 26.0156C137.477 24.2423 138.214 22.5784 139.471 21.3212ZM80.3407 172.969C40.103 172.969 7.36736 140.235 7.36736 99.9993C7.36736 59.7638 40.1027 27.0298 80.3407 27.0298C99.0325 27.0298 116.105 34.0945 129.029 45.6928L120.887 53.835C110.057 44.3123 95.8614 38.5301 80.3407 38.5301C73.1917 38.5301 66.1822 39.7529 59.5064 42.1642C57.6804 42.8238 56.7347 44.8389 57.3943 46.6653C58.0541 48.4913 60.0679 49.438 61.8953 48.7775C67.8026 46.6435 74.0084 45.5614 80.3407 45.5614C93.9226 45.5614 106.359 50.5609 115.906 58.8156L107.75 66.9715C100.308 60.7858 90.7511 57.0613 80.3407 57.0613C56.6634 57.0613 37.4006 76.3234 37.4006 99.9993C37.4006 123.675 56.6634 142.937 80.3407 142.937C87.1076 142.937 93.8544 141.315 99.8513 138.244C101.58 137.359 102.263 135.241 101.379 133.513C100.494 131.784 98.3748 131.102 96.6468 131.986C91.5657 134.587 86.0792 135.906 80.3407 135.906C60.5407 135.906 44.4318 119.799 44.4318 99.9997C44.4318 80.2004 60.5404 64.0929 80.3407 64.0929C88.8119 64.0929 96.6061 67.0432 102.753 71.9679L94.5522 80.1688C90.5469 77.2905 85.6387 75.5928 80.341 75.5928C66.8826 75.5928 55.9332 86.5415 55.9332 99.9993C55.9332 113.457 66.8826 124.406 80.341 124.406C93.7992 124.406 104.749 113.457 104.749 99.9993C104.749 94.3701 102.832 89.1804 99.6179 85.0467L107.789 76.876C113.064 83.1279 116.25 91.198 116.25 99.999C116.25 103.86 115.638 107.66 114.431 111.293C113.819 113.135 114.816 115.126 116.659 115.738C118.5 116.349 120.491 115.353 121.104 113.51C122.548 109.161 123.281 104.615 123.281 99.999C123.281 89.2587 119.317 79.4273 112.775 71.8898L120.92 63.7459C129.536 73.3794 134.782 86.088 134.782 99.999C134.782 130.016 110.36 154.437 80.3414 154.437C50.3229 154.437 25.8996 130.016 25.8996 99.9993C25.8996 88.4016 29.5129 77.3243 36.3491 67.9646C37.4944 66.3967 37.1517 64.1973 35.5837 63.0523C34.0157 61.9072 31.8164 62.2493 30.671 63.8176C22.95 74.3894 18.8683 86.9008 18.8683 99.9993C18.8683 133.894 46.4449 161.469 80.3403 161.469C114.236 161.469 141.812 133.893 141.812 99.9993C141.812 84.1495 135.782 69.6824 125.895 58.7699L134.032 50.6341C145.997 63.6362 153.313 80.9791 153.313 99.9997C153.314 140.235 120.578 172.969 80.3407 172.969ZM97.7166 99.9993C97.7166 109.58 89.9218 117.375 80.3403 117.375C70.7589 117.375 62.9637 109.58 62.9637 99.9993C62.9637 90.4185 70.7589 82.6241 80.3403 82.6241C83.6942 82.6241 86.8288 83.5803 89.4873 85.2327L78.2735 96.4457C76.9007 97.8186 76.9007 100.045 78.2735 101.418C78.9601 102.104 79.8598 102.447 80.7594 102.447C81.659 102.447 82.5587 102.104 83.2453 101.418L94.5923 90.0712C96.5603 92.8876 97.7166 96.3107 97.7166 99.9993ZM158.343 40.1909C157.085 41.4488 155.419 42.1853 153.645 42.2707L142.575 42.0918L149.328 35.3383C149.404 35.2631 149.474 35.1847 149.541 35.1049L155.312 29.3245L168.242 30.292L158.343 40.1909Z" fill="#585858"/>
</g>
<defs>
<clipPath id="clip0">
<rect width="180" height="180" fill="white"/>
</clipPath>
</defs>
</svg>
